<svg width="11" height="13" viewBox="0 0 11 13" fill="none" xmlns="http://www.w3.org/2000/svg">
<path d="M10.8164 2.514C10.7677 2.45841 10.7081 2.41347 10.6413 2.38198C10.5744 2.35049 10.5018 2.33314 10.4279 2.331C9.28041 2.301 7.82841 1.074 6.86841 0.592503C6.27541 0.296003 5.88391 0.100503 5.58991 0.0490033C5.53021 0.0403045 5.46956 0.040473 5.40991 0.0495033C5.11591 0.101003 4.72441 0.296503 4.13191 0.593003C3.17191 1.074 1.71991 2.301 0.572411 2.331C0.498497 2.33325 0.42583 2.35065 0.358916 2.38212C0.292001 2.4136 0.232266 2.45849 0.183411 2.514C0.0821478 2.62857 0.029901 2.77831 0.0379114 2.931C0.284411 7.9425 2.08191 11.044 5.23591 12.8465C5.31791 12.893 5.40891 12.917 5.49941 12.917C5.58991 12.917 5.68091 12.893 5.76341 12.8465C8.91741 11.044 10.7144 7.9425 10.9614 2.931C10.9699 2.77833 10.9178 2.62848 10.8164 2.514ZM8.30841 4.485L5.64691 8.4125C5.55141 8.5535 5.40141 8.647 5.25291 8.647C5.10391 8.647 4.93841 8.5655 4.83391 8.461L2.95791 6.5845C2.89666 6.52303 2.86227 6.43978 2.86227 6.353C2.86227 6.26622 2.89666 6.18298 2.95791 6.1215L3.42141 5.657C3.48302 5.596 3.56621 5.56177 3.65291 5.56177C3.73961 5.56177 3.82281 5.596 3.88441 5.657L5.10441 6.877L7.22391 3.7485C7.27295 3.67691 7.34832 3.62763 7.43357 3.61143C7.51882 3.59522 7.60702 3.6134 7.67891 3.662L8.22141 4.03C8.29308 4.07897 8.34246 4.1543 8.35877 4.23956C8.37507 4.32481 8.35696 4.41305 8.30841 4.485Z" fill="#0057FF"/>
</svg>
